<svg width="59" height="26" viewBox="0 0 59 26" fill="none" xmlns="http://www.w3.org/2000/svg">
<path d="M2 9.0769C3.44948 11.8962 8.17679 24.8333 13.5803 22.8847C15.5172 22.1863 16.7207 18.4662 16.9406 16.5994C17.1558 14.7718 16.3264 12.632 16.0343 10.8329C15.8901 9.94476 14.7091 7.72928 15.4824 8.1908C18.4843 9.98233 22.7807 20.6476 26.1842 20.2926C29.7647 19.9191 31.5074 11.9405 31.1603 9.09502C30.9187 7.11451 29.7235 1.30773 30.4976 3.14615C32.2263 7.25181 34.3474 15.9816 38.9813 17.7788C44.9966 20.1116 52.1329 14.6269 56.3027 11.3638" stroke="url(#paint0_linear_249_6703)" stroke-width="4" stroke-linecap="round"/>
<defs>
<linearGradient id="paint0_linear_249_6703" x1="5.66976" y1="7.53174" x2="48.4121" y2="-2.95835" gradientUnits="userSpaceOnUse">
<stop stop-color="#D9B227"/>
<stop offset="1" stop-color="#FD4141"/>
</linearGradient>
</defs>
</svg>
