<svg width="60" height="26" viewBox="0 0 60 26" fill="none" xmlns="http://www.w3.org/2000/svg">
<path d="M57.0132 9.07678C55.5637 11.8961 50.8364 24.8332 45.4329 22.8846C43.496 22.1862 42.2925 18.4661 42.0726 16.5992C41.8574 14.7717 42.6868 12.6318 42.9789 10.8328C43.1231 9.94464 44.3041 7.72916 43.5307 8.19067C40.5288 9.98221 36.2325 20.6475 32.829 20.2925C29.2485 19.919 27.5057 11.9403 27.8529 9.0949C28.0945 7.11439 29.2897 1.3076 28.5156 3.14602C26.7869 7.25169 24.6658 15.9815 20.0319 17.7786C14.0166 20.1115 6.88033 14.6268 2.71045 11.3637" stroke="url(#paint0_linear_249_6704)" stroke-width="4" stroke-linecap="round"/>
<defs>
<linearGradient id="paint0_linear_249_6704" x1="53.3434" y1="7.53162" x2="10.601" y2="-2.95847" gradientUnits="userSpaceOnUse">
<stop stop-color="#D9B227"/>
<stop offset="1" stop-color="#FD4141"/>
</linearGradient>
</defs>
</svg>
