<svg width="80" height="40" viewBox="0 0 80 40" fill="none" xmlns="http://www.w3.org/2000/svg">
<path d="M0 30.7667V30.207C0.520569 22.1849 9.38526 21.4511 15.3893 20.3815C15.4372 20.3734 15.4804 20.348 15.5101 20.3102C15.5398 20.2723 15.5538 20.2249 15.5495 20.1775C15.2767 16.9338 10.8644 18.3094 9.21006 19.2994C8.56102 19.6874 7.93784 20.1211 7.34052 20.6004C7.27211 20.6551 7.20537 20.6534 7.1403 20.5954L2.45018 16.4562C2.37676 16.3915 2.3751 16.3252 2.44517 16.2572C5.74127 13.1653 9.72813 11.8021 14.1855 11.3594C20.142 10.7649 24.0363 13.72 24.0963 19.7919C24.1447 24.3855 24.1631 28.9798 24.1514 33.5751C24.1514 33.6613 24.1088 33.7119 24.0238 33.7268L15.6846 35.2541C15.5728 35.274 15.517 35.2276 15.517 35.1148V34.2765C15.517 34.1538 15.4652 34.1256 15.3618 34.1919C11.883 36.4033 6.10667 38.4978 2.36258 35.6272C0.879294 34.4896 0.0917669 32.8694 0 30.7667ZM9.20005 27.4036C8.01626 28.7668 8.54183 30.5354 10.4439 30.5105C12.9592 30.4757 15.9825 28.6971 15.4644 25.7818C15.451 25.7055 15.4052 25.6732 15.3267 25.6848C13.8501 25.9236 10.1536 26.3091 9.20005 27.4036Z" fill="#1F3A93"/>
<path d="M64.493 39.2389H64.3679L60.2959 30.3288C60.29 30.3158 60.2871 30.3017 60.2874 30.2875C60.2877 30.2733 60.2912 30.2593 60.2977 30.2467C60.3042 30.234 60.3135 30.2229 60.3249 30.2143C60.3363 30.2057 60.3495 30.1998 60.3635 30.1969L63.5895 29.595C63.6412 29.585 63.6947 29.592 63.7417 29.6149C63.7887 29.6378 63.8267 29.6754 63.8498 29.7218L66.1573 34.3112C66.1641 34.3254 66.175 34.3373 66.1886 34.3453C66.2022 34.3533 66.2179 34.3572 66.2337 34.3564C66.2494 34.3556 66.2647 34.3502 66.2773 34.3408C66.29 34.3315 66.2997 34.3186 66.305 34.3038L68.4348 28.8437C68.4715 28.7476 68.5408 28.6903 68.6425 28.6721C71.6708 28.105 74.2637 27.5204 76.2659 27.2443C80.3854 26.6722 80.7933 31.3884 78.1855 33.458C78.072 33.5492 78.0595 33.6512 78.1479 33.764L79.9599 36.0674C80.03 36.1569 80.0083 36.2117 79.8948 36.2316L76.6963 36.8236C76.6163 36.8385 76.552 36.8145 76.5036 36.7514L75.2623 35.157C75.2039 35.0823 75.1905 35.0003 75.2222 34.9107L76.9416 30.1596C76.9453 30.1481 76.9449 30.1357 76.9404 30.1245C76.9359 30.1133 76.9277 30.1039 76.9171 30.098C76.9065 30.0922 76.8941 30.0902 76.8822 30.0923C76.8702 30.0945 76.8594 30.1007 76.8515 30.1099L70.8449 37.7688C70.7916 37.8368 70.7649 37.8277 70.7649 37.7415V32.2367C70.7648 32.2217 70.7596 32.2074 70.75 32.1961C70.7404 32.1848 70.727 32.1773 70.7121 32.1746C70.6972 32.172 70.6816 32.1745 70.668 32.1817C70.6544 32.189 70.6435 32.2004 70.6372 32.2143L68.1795 38.3584C68.1462 38.4429 68.0844 38.4943 67.9943 38.5126L64.493 39.2389Z" fill="#2FA2FF"/>
<path d="M79.6496 0.0760839V23.4833C79.6499 23.5014 79.6438 23.519 79.6324 23.5331C79.621 23.5472 79.6049 23.5569 79.587 23.5604L71.1078 25.1126C71.0966 25.1148 71.0851 25.1145 71.074 25.1118C71.063 25.109 71.0527 25.1039 71.0439 25.0968C71.035 25.0897 71.0279 25.0807 71.0229 25.0706C71.018 25.0604 71.0153 25.0493 71.0152 25.038V1.61086C71.0148 1.59275 71.0209 1.5751 71.0323 1.561C71.0438 1.5469 71.0598 1.53725 71.0777 1.53375L79.557 0.00145948C79.5681 -0.000729725 79.5796 -0.000453189 79.5907 0.0022695C79.6017 0.00499219 79.612 0.0100944 79.6209 0.0172148C79.6297 0.0243352 79.6369 0.0332994 79.6418 0.0434727C79.6468 0.0536459 79.6494 0.0647792 79.6496 0.0760839Z" fill="#2FA2FF"/>
<path d="M54.8825 16.7497C54.8878 16.7632 54.8971 16.7748 54.9091 16.783C54.9212 16.7912 54.9354 16.7955 54.95 16.7955C54.9646 16.7955 54.9789 16.7912 54.9909 16.783C55.003 16.7748 55.0123 16.7632 55.0176 16.7497L59.7528 3.68546C59.7612 3.66335 59.775 3.64375 59.793 3.62852C59.8109 3.61328 59.8324 3.60292 59.8554 3.5984L68.2445 2.0686C68.3313 2.05202 68.3597 2.08518 68.3296 2.1681L59.2923 27.1623C59.2656 27.2386 59.2113 27.2842 59.1296 27.2991L50.6779 28.8463C50.6587 28.8499 50.6388 28.8467 50.6215 28.8372C50.6042 28.8277 50.5905 28.8125 50.5828 28.7941C48.8609 24.5554 47.119 20.3292 45.357 16.1154C45.0701 15.4289 44.4786 14.8659 43.5826 14.4264C43.5009 14.3866 43.475 14.3236 43.505 14.2374L46.4808 6.01623C46.4877 5.99639 46.5017 5.9798 46.5202 5.96969C46.5387 5.95957 46.5603 5.95666 46.5809 5.96151C49.4724 6.61654 51.4746 8.29062 52.5874 10.9837C53.38 12.9008 54.145 14.8227 54.8825 16.7497Z" fill="#2FA2FF"/>
<path d="M32.458 27.5254L35.2435 24.2121C35.3152 24.1259 35.3511 24.1383 35.3511 24.2494V31.5352C35.3511 31.6132 35.3127 31.6596 35.236 31.6745L26.9444 33.1969C26.8443 33.2151 26.7784 33.1753 26.7467 33.0775C26.6441 32.7566 26.7793 32.381 26.7793 32.1397C26.7776 24.6789 26.7784 17.219 26.7818 9.75983C26.7818 9.68521 26.8185 9.64043 26.8919 9.62551L35.231 8.10814C35.3111 8.09322 35.3511 8.12639 35.3511 8.20764V10.5086C35.3511 10.6628 35.4028 10.6827 35.5063 10.5683C37.8589 8.00616 40.2315 6.32711 43.7728 5.852C43.8813 5.83707 43.9171 5.88019 43.8804 5.98135L41.0473 13.8119C41.0156 13.8998 40.9531 13.9537 40.8596 13.9736C38.4153 14.4595 36.7418 15.7878 35.8392 17.9586C35.075 19.7976 33.9246 22.9733 32.3879 27.4856C32.3395 27.6249 32.3629 27.6382 32.458 27.5254Z" fill="#1F3A93"/>
</svg>
