<svg width="19" height="18" viewBox="0 0 19 18" fill="none" xmlns="http://www.w3.org/2000/svg">
<path d="M9.82368 0.230779L12.5214 5.68903L18.5518 6.56451C18.6283 6.57584 18.7002 6.60821 18.7592 6.65797C18.8183 6.70774 18.8622 6.77292 18.886 6.84619C18.9099 6.91945 18.9127 6.99789 18.8942 7.07266C18.8756 7.14743 18.8365 7.21557 18.7812 7.2694L14.4183 11.5171L15.4484 17.5162C15.4617 17.592 15.4534 17.6701 15.4243 17.7414C15.3953 17.8128 15.3468 17.8746 15.2843 17.9199C15.2218 17.9652 15.1478 17.9922 15.0706 17.9978C14.9935 18.0034 14.9163 17.9873 14.8479 17.9515L9.45374 15.1197L4.05961 17.9523C3.99121 17.9883 3.91405 18.0044 3.83688 17.999C3.75972 17.9935 3.68565 17.9665 3.62309 17.9212C3.56054 17.8759 3.51201 17.8141 3.48301 17.7427C3.45401 17.6713 3.44572 17.5933 3.45907 17.5174L4.48915 11.5171L0.125087 7.2694C0.0697532 7.21557 0.0306183 7.14743 0.01209 7.07266C-0.00643837 6.99789 -0.00362419 6.91945 0.0202156 6.84619C0.0440554 6.77292 0.0879739 6.70774 0.147025 6.65797C0.206076 6.60821 0.277915 6.57584 0.35445 6.56451L6.38488 5.68903L9.0838 0.230779C9.11746 0.161612 9.17001 0.103279 9.23544 0.0624633C9.30087 0.0216477 9.37652 0 9.45374 0C9.53096 0 9.60662 0.0216477 9.67204 0.0624633C9.73747 0.103279 9.79002 0.161612 9.82368 0.230779Z" fill="#2563EB"/>
</svg>
